<svg width="146" height="26" viewBox="0 0 146 26" fill="none" xmlns="http://www.w3.org/2000/svg">
<path d="M30.3442 20.5833H33.2586V15.259H36.338C40.0537 15.259 42.0489 13.0739 42.0489 10.0424C42.0489 7.03398 40.0772 4.82577 36.3772 4.82577H30.3442V20.5833ZM33.2586 12.9123V7.21094H35.9295C38.1133 7.21094 39.0796 8.36506 39.0796 10.0424C39.0796 11.7197 38.1133 12.9123 35.9452 12.9123H33.2586ZM47.2984 4.82577H44.4547V20.5833H47.2984V4.82577ZM53.6948 20.8219C55.588 20.8219 56.7191 19.9524 57.2377 18.9599H57.3319V20.5833H60.0656V12.6738C60.0656 9.54995 57.4655 8.61127 55.1638 8.61127C52.6265 8.61127 50.6783 9.71923 50.0498 11.8736L52.705 12.2429C52.9878 11.435 53.7891 10.7425 55.1795 10.7425C56.4993 10.7425 57.222 11.4043 57.222 12.566V12.6122C57.222 13.4124 56.3656 13.4509 54.2368 13.6741C51.8958 13.9202 49.6571 14.605 49.6571 17.2671C49.6571 19.5908 51.3931 20.8219 53.6948 20.8219ZM54.4332 18.7753C53.247 18.7753 52.3986 18.2443 52.3986 17.221C52.3986 16.1515 53.3492 15.7053 54.6217 15.5283C55.368 15.4283 56.8606 15.2436 57.2298 14.9512V16.3438C57.2298 17.6595 56.1458 18.7753 54.4332 18.7753ZM62.925 20.5833H65.7688V8.76516H62.925V20.5833ZM64.3547 7.08783C65.2581 7.08783 65.9966 6.41075 65.9966 5.57979C65.9966 4.74112 65.2581 4.06404 64.3547 4.06404C63.4435 4.06404 62.7051 4.74112 62.7051 5.57979C62.7051 6.41075 63.4435 7.08783 64.3547 7.08783ZM71.5367 13.6587C71.5367 11.9505 72.5893 10.9657 74.0897 10.9657C75.5588 10.9657 76.4385 11.912 76.4385 13.4893V20.5833H79.2822V13.0585C79.2901 10.227 77.6405 8.61127 75.1502 8.61127C73.3434 8.61127 72.1023 9.45762 71.5524 10.7733H71.4111V8.76516H68.693V20.5833H71.5367V13.6587ZM82.8723 20.5833L84.5926 15.8361H91.3484L93.0687 20.5833H94.6085L88.7561 4.82577H87.1849L81.3325 20.5833H82.8723ZM85.0639 14.5434L87.9155 6.69544H88.0255L90.8771 14.5434H85.0639ZM101.419 20.8296C103.611 20.8296 104.632 19.4677 105.127 18.3906H105.292V20.5833H106.659V4.82577H105.253V11.0196H105.127C104.648 9.95774 103.65 8.60358 101.443 8.60358C98.4655 8.60358 96.4545 11.0657 96.4545 14.7051C96.4545 18.3751 98.4577 20.8296 101.419 20.8296ZM101.584 19.5754C99.1804 19.5754 97.8606 17.4365 97.8606 14.682C97.8606 11.9583 99.1647 9.85003 101.584 9.85003C103.941 9.85003 105.276 11.8505 105.276 14.682C105.276 17.5365 103.925 19.5754 101.584 19.5754ZM110.641 20.5833H112.04V13.0124C112.04 11.1734 113.289 9.86541 114.963 9.86541C116.612 9.86541 117.571 10.9426 117.571 12.5429V20.5833H119V12.8046C119 11.1042 120.037 9.86541 121.876 9.86541C123.469 9.86541 124.53 10.8041 124.53 12.6661V20.5833H125.928V12.6661C125.928 10.0193 124.538 8.61127 122.299 8.61127C120.539 8.61127 119.267 9.44993 118.725 10.7579H118.623C118.088 9.41915 117.028 8.61127 115.363 8.61127C113.784 8.61127 112.606 9.3576 112.127 10.581H112.001V8.76516H110.641V20.5833ZM129.646 20.5833H131.052V8.76516H129.646V20.5833ZM130.361 6.73391C130.934 6.73391 131.413 6.28765 131.413 5.74906C131.413 5.21047 130.934 4.76421 130.361 4.76421C129.787 4.76421 129.316 5.21047 129.316 5.74906C129.316 6.28765 129.787 6.73391 130.361 6.73391ZM136.148 13.197C136.148 11.1349 137.531 9.86541 139.432 9.86541C141.286 9.86541 142.48 11.0811 142.48 13.0124V20.5833H143.878V12.9276C143.878 10.127 142.22 8.61127 139.786 8.61127C138.018 8.61127 136.801 9.41146 136.235 10.6194H136.109V8.76516H134.75V20.5833H136.148V13.197Z" fill="#262D3F"/>
<path d="M26.1608 11.2572L21.0312 2.59057C20.5182 1.64855 19.4923 1.08333 18.4023 1.08333H8.14317C7.05314 1.08333 6.02723 1.64855 5.51428 2.59057L0.384717 11.2572C-0.128239 12.1993 -0.128239 13.3297 0.384717 14.2717L5.51428 22.9384C6.02723 23.8805 7.05314 24.4456 8.14317 24.4456H18.4023C19.4923 24.4456 20.5182 23.8805 21.0312 22.9384L26.1608 14.2717C26.6736 13.3297 26.6736 12.1993 26.1608 11.2572ZM24.1731 13.1413L19.0435 21.8079C18.9152 22.0592 18.6588 22.1848 18.3382 22.1848H8.14317C7.8867 22.1848 7.5661 22.0592 7.43786 21.8079L2.3083 13.1413C2.18006 12.8901 2.18006 12.5761 2.3083 12.3249L7.43786 3.65821C7.5661 3.407 7.82257 3.2814 8.14317 3.2814H18.4023C18.6588 3.2814 18.9793 3.407 19.1076 3.65821L24.2371 12.3249C24.3654 12.6389 24.3654 12.8901 24.1731 13.1413Z" fill="#4A6CF7"/>
<path d="M17.9394 7.3125H15.8848C14.1848 7.3125 12.7927 8.67599 12.7927 10.3411V12.5299H10.558C8.85792 12.5299 7.46582 13.8934 7.46582 15.5585V17.5709C7.46582 18.4409 8.19841 19.1585 9.08673 19.1585H11.1414C12.8414 19.1585 14.2335 17.7951 14.2335 16.13V13.9411H16.4683C18.1683 13.9411 19.5604 12.5776 19.5604 10.9125V8.9001C19.5604 8.00186 18.8244 7.3125 17.9394 7.3125ZM12.7927 16.1051C12.7927 16.999 12.054 17.7225 11.1414 17.7225H9.08673C8.98578 17.7225 8.90666 17.6449 8.90666 17.5461V15.5336C8.90666 14.6397 9.6453 13.9163 10.558 13.9163H12.7927V16.1051ZM18.1195 10.8877C18.1195 11.7816 17.3809 12.505 16.4683 12.505H14.2335V10.3162C14.2335 9.42236 14.9721 8.69889 15.8848 8.69889H17.9394C18.0404 8.69889 18.1195 8.77639 18.1195 8.87526V10.8877Z" fill="#4A6CF7" stroke="#4A6CF7" stroke-width="0.5"/>
</svg>
