<svg width="15" height="22" viewBox="0 0 15 22" fill="none" xmlns="http://www.w3.org/2000/svg">
<g clip-path="url(#clip0_1715_5427)">
<path d="M7.3335 10.9999C7.3335 10.0275 7.7198 9.09483 8.40744 8.40719C9.09507 7.71956 10.0277 7.33325 11.0002 7.33325C11.9726 7.33325 12.9053 7.71956 13.5929 8.40719C14.2805 9.09483 14.6668 10.0275 14.6668 10.9999C14.6668 11.9724 14.2805 12.905 13.5929 13.5926C12.9053 14.2803 11.9726 14.6666 11.0002 14.6666C10.0277 14.6666 9.09507 14.2803 8.40744 13.5926C7.7198 12.905 7.3335 11.9724 7.3335 10.9999Z" fill="#1ABCFE"/>
<path d="M0 18.3334C0 17.361 0.386308 16.4283 1.07394 15.7407C1.76157 15.0531 2.69421 14.6667 3.66667 14.6667H7.33333V18.3334C7.33333 19.3059 6.94702 20.2385 6.25939 20.9261C5.57176 21.6138 4.63913 22.0001 3.66667 22.0001C2.69421 22.0001 1.76157 21.6138 1.07394 20.9261C0.386308 20.2385 0 19.3059 0 18.3334H0Z" fill="#0ACF83"/>
<path d="M7.3335 0V7.33333H11.0002C11.9726 7.33333 12.9053 6.94702 13.5929 6.25939C14.2805 5.57176 14.6668 4.63913 14.6668 3.66667C14.6668 2.69421 14.2805 1.76157 13.5929 1.07394C12.9053 0.386308 11.9726 0 11.0002 0L7.3335 0Z" fill="#FF7262"/>
<path d="M0 3.66667C0 4.63913 0.386308 5.57176 1.07394 6.25939C1.76157 6.94702 2.69421 7.33333 3.66667 7.33333H7.33333V0H3.66667C2.69421 0 1.76157 0.386308 1.07394 1.07394C0.386308 1.76157 0 2.69421 0 3.66667H0Z" fill="#F24E1E"/>
<path d="M0 10.9999C0 11.9724 0.386308 12.905 1.07394 13.5926C1.76157 14.2803 2.69421 14.6666 3.66667 14.6666H7.33333V7.33325H3.66667C2.69421 7.33325 1.76157 7.71956 1.07394 8.40719C0.386308 9.09483 0 10.0275 0 10.9999H0Z" fill="#A259FF"/>
</g>
<defs>
<clipPath id="clip0_1715_5427">
<rect width="14.6667" height="22" fill="white"/>
</clipPath>
</defs>
</svg>
