<svg width="20" height="18" viewBox="0 0 20 18" fill="none" xmlns="http://www.w3.org/2000/svg">
<path opacity="0.5" d="M5.93933 8.16343C6.36001 7.43478 7.41172 7.43478 7.8324 8.16343L12.5651 16.3607C12.9858 17.0893 12.4599 18.0001 11.6185 18.0001H2.15319C1.31182 18.0001 0.785971 17.0893 1.20665 16.3607L5.93933 8.16343Z" fill="#219653"/>
<path d="M12.8617 8.16343C13.2824 7.43478 14.3341 7.43478 14.7548 8.16343L19.4874 16.3607C19.9081 17.0893 19.3823 18.0001 18.5409 18.0001H9.07555C8.23419 18.0001 7.70833 17.0893 8.12902 16.3607L12.8617 8.16343Z" fill="#219653"/>
<path d="M5.29406 2.64703C5.29406 4.10894 4.10894 5.29406 2.64703 5.29406C1.18512 5.29406 0 4.10894 0 2.64703C0 1.18512 1.18512 0 2.64703 0C4.10894 0 5.29406 1.18512 5.29406 2.64703Z" fill="#219653"/>
</svg>
