<svg width="21" height="20" viewBox="0 0 21 20" fill="none" xmlns="http://www.w3.org/2000/svg">
<g clip-path="url(#clip0_1719_5516)">
<path d="M16.8804 20H3.63241C1.6238 20 0 18.3762 0 16.3676V3.63241C0 1.62379 1.6238 0 3.63241 0H16.8804C18.889 0 20.5128 1.62379 20.5128 3.63241V16.3676C20.5128 18.3762 18.889 20 16.8804 20Z" fill="#FF26BE"/>
<path d="M16.5555 19.145H3.95734C2.24821 19.145 0.85498 17.7518 0.85498 16.0427V3.95734C0.85498 2.24821 2.24821 0.85498 3.95734 0.85498H16.5473C18.2654 0.85498 19.6496 2.24821 19.6496 3.95734V16.0345C19.6579 17.7518 18.2646 19.145 16.5555 19.145Z" fill="#2E001F"/>
<path d="M8.11062 9.35878L10.5041 13.9569C10.5467 14.025 10.5213 14.094 10.4524 14.094H8.96478C8.87042 14.094 8.82775 14.0685 8.78508 13.9832C8.2378 12.855 7.68232 11.7268 7.1096 10.5132H7.09237C6.57955 11.6587 6.01503 12.864 5.46857 13.9922C5.42591 14.0603 5.38324 14.0866 5.31432 14.0866H3.90549C3.82016 14.0866 3.81114 14.0185 3.85462 13.9668L6.19637 9.50483L3.93175 4.99201C3.88006 4.92391 3.93175 4.87222 3.98262 4.87222H5.45298C5.53832 4.87222 5.57278 4.88945 5.60642 4.96658C6.14467 6.09478 6.69196 7.25745 7.20478 8.39386H7.22201C7.7176 7.26566 8.26488 6.09478 8.79493 4.97478C8.8376 4.90668 8.86303 4.86401 8.94919 4.86401H10.3252C10.3933 4.86401 10.4195 4.91571 10.3769 4.98381L8.11062 9.35878ZM10.9233 10.752C10.9233 8.76063 12.2485 7.20494 14.3506 7.20494C14.5303 7.20494 14.6239 7.20494 14.7953 7.22217V4.95755C14.7953 4.90586 14.838 4.87222 14.8807 4.87222H16.2312C16.2993 4.87222 16.3166 4.89765 16.3166 4.94032V12.7869C16.3166 13.0175 16.3166 13.3079 16.3592 13.6246C16.3592 13.6763 16.342 13.6927 16.2911 13.719C15.5732 14.0611 14.8208 14.2146 14.1028 14.2146C12.2476 14.222 10.9225 13.0773 10.9233 10.752ZM14.7945 8.56453C14.6747 8.51284 14.5041 8.47919 14.2989 8.47919C13.2216 8.47919 12.47 9.30791 12.47 10.6847C12.47 12.2577 13.2396 12.8903 14.2054 12.8903C14.4105 12.8903 14.6329 12.8648 14.7953 12.7959V8.56453H14.7945Z" fill="#FFD9F2"/>
</g>
<defs>
<clipPath id="clip0_1719_5516">
<rect width="20.5128" height="20" fill="white"/>
</clipPath>
</defs>
</svg>
