<svg width="21" height="20" viewBox="0 0 21 20" fill="none" xmlns="http://www.w3.org/2000/svg">
<g clip-path="url(#clip0_1719_5535)">
<path d="M3.63173 0.00195312H16.8769C18.885 0.00195312 20.5086 1.62555 20.5086 3.63369V16.3661C20.5086 18.3743 18.885 19.9979 16.8769 19.9979H3.63173C1.6236 19.9979 0 18.3743 0 16.3661V3.63369C0 1.62555 1.6236 0.00195312 3.63173 0.00195312Z" fill="#001E36"/>
<path d="M4.61426 14.0248V5.2317C4.61426 5.17188 4.63989 5.1377 4.69971 5.1377C4.84498 5.1377 4.9817 5.1377 5.17824 5.12915C5.38333 5.12061 5.59696 5.12061 5.82768 5.11206C6.05841 5.10352 6.30622 5.10352 6.57112 5.09497C6.83602 5.08643 7.09238 5.08643 7.34874 5.08643C8.04945 5.08643 8.63053 5.17188 9.10906 5.35133C9.53632 5.4966 9.92941 5.73587 10.2541 6.05204C10.5276 6.32549 10.7412 6.65875 10.8779 7.0262C11.0061 7.3851 11.0745 7.75255 11.0745 8.13708C11.0745 8.87197 10.9036 9.47869 10.5618 9.95722C10.2199 10.4358 9.74141 10.7947 9.18597 10.9997C8.60489 11.2134 7.964 11.2903 7.26329 11.2903C7.0582 11.2903 6.92148 11.2903 6.83602 11.2817C6.75057 11.2732 6.63094 11.2732 6.46858 11.2732V14.0162C6.47712 14.076 6.4344 14.1273 6.37458 14.1359H4.7168C4.64844 14.1359 4.61426 14.1017 4.61426 14.0248ZM6.47712 6.78693V9.65814C6.59676 9.66668 6.70785 9.67523 6.81039 9.67523H7.26329C7.59655 9.67523 7.92982 9.62396 8.24599 9.52141C8.51944 9.44451 8.75871 9.28215 8.9467 9.06851C9.12615 8.85488 9.21161 8.56435 9.21161 8.18835C9.22015 7.92345 9.15179 7.65855 9.01506 7.42783C8.8698 7.20565 8.66471 7.03474 8.4169 6.94075C8.10072 6.81257 7.75891 6.7613 7.40856 6.76984C7.18638 6.76984 6.98984 6.76984 6.82748 6.77839C6.65657 6.76984 6.53694 6.77839 6.47712 6.78693ZM16.4067 9.13688C16.1504 9.00015 15.8769 8.90616 15.5864 8.84634C15.2702 8.77798 14.954 8.73525 14.6293 8.73525C14.4584 8.7267 14.2789 8.75234 14.1166 8.79507C14.0055 8.8207 13.9115 8.88052 13.8517 8.96597C13.809 9.03433 13.7833 9.11979 13.7833 9.19669C13.7833 9.2736 13.8175 9.35051 13.8688 9.41887C13.9457 9.51287 14.0482 9.58978 14.1593 9.64959C14.3558 9.75214 14.5609 9.84613 14.766 9.93159C15.2275 10.0854 15.6718 10.299 16.082 10.5554C16.364 10.7348 16.5947 10.9741 16.7571 11.2646C16.8938 11.5381 16.9622 11.8372 16.9536 12.1448C16.9622 12.5464 16.8425 12.9481 16.6203 13.2813C16.3811 13.6231 16.0478 13.888 15.6633 14.0419C15.2446 14.2213 14.7318 14.3153 14.1166 14.3153C13.7235 14.3153 13.339 14.2811 12.9544 14.2042C12.6553 14.1529 12.3563 14.0589 12.0828 13.9308C12.023 13.8966 11.9803 13.8368 11.9888 13.7684V12.2815C11.9888 12.2559 11.9974 12.2217 12.023 12.2046C12.0486 12.1875 12.0743 12.1961 12.0999 12.2132C12.4332 12.4097 12.7835 12.5464 13.1595 12.6319C13.4842 12.7173 13.826 12.7601 14.1679 12.7601C14.4926 12.7601 14.7233 12.7173 14.8771 12.6404C15.0138 12.5806 15.1078 12.4353 15.1078 12.2815C15.1078 12.1619 15.0395 12.0508 14.9027 11.9397C14.766 11.8286 14.484 11.7005 14.0653 11.5381C13.6295 11.3843 13.2279 11.1792 12.8519 10.9228C12.587 10.7348 12.3648 10.487 12.2024 10.1965C12.0657 9.92304 11.9974 9.62396 12.0059 9.32487C12.0059 8.95743 12.1084 8.60707 12.2964 8.2909C12.5101 7.94909 12.8262 7.67564 13.1937 7.50473C13.5953 7.29965 14.0995 7.20565 14.7062 7.20565C15.0566 7.20565 15.4155 7.23128 15.7658 7.28256C16.0222 7.31674 16.27 7.3851 16.5007 7.4791C16.5349 7.48764 16.5691 7.52182 16.5862 7.556C16.5947 7.59019 16.6033 7.62437 16.6033 7.65855V9.05142C16.6033 9.08561 16.5862 9.11979 16.5605 9.13688C16.4836 9.15397 16.4409 9.15397 16.4067 9.13688Z" fill="#31A8FF"/>
</g>
<defs>
<clipPath id="clip0_1719_5535">
<rect width="20.5086" height="20" fill="white"/>
</clipPath>
</defs>
</svg>
